<?xml version="1.0" encoding="UTF-8" standalone="no" ?>
<!DOCTYPE svg PUBLIC "-//W3C//DTD SVG 1.1//EN" "http://www.w3.org/Graphics/SVG/1.1/DTD/svg11.dtd">
<svg xmlns="http://www.w3.org/2000/svg" xmlns:xlink="http://www.w3.org/1999/xlink" version="1.1" width="901" height="138" viewBox="-113.92591328098331 -1333.6896551724137 901 138" xml:space="preserve">
<desc>Created with Fabric.js 4.6.0</desc>
<defs>
</defs>
<g transform="matrix(1 0 0 1 336.57 -1264.69)" id="Bi49V5cX30HUAigSiIKyk"  >
<path style="stroke: none; stroke-width: 1; stroke-dasharray: none; stroke-linecap: round; stroke-dashoffset: 0; stroke-linejoin: miter; stroke-miterlimit: 4; fill: rgb(255,0,114); fill-rule: nonzero; opacity: 1;" vector-effect="non-scaling-stroke"  transform=" translate(0, 0)" d="M -450 -68.5 L -412.5 -60 C -375 -51.5 -300 -34.5 -225 -22.799999999999997 C -150 -11.199999999999998 -75 -4.799999999999997 0 -9.799999999999997 C 75 -14.799999999999997 150 -31.199999999999996 225 -42.3 C 300 -53.5 375 -59.5 412.5 -62.5 L 450 -65.5 L 450 68.5 L 412.5 68.5 C 375 68.5 300 68.5 225 68.5 C 150 68.5 75 68.5 0 68.5 C -75 68.5 -150 68.5 -225 68.5 C -300 68.5 -375 68.5 -412.5 68.5 L -450 68.5 z" stroke-linecap="round" />
</g>
</svg>